<svg width="800" height="214" viewBox="0 0 800 214" fill="none" xmlns="http://www.w3.org/2000/svg">
<path d="M277.722 57.6738H316.271V104.392H324.44V18.3589H316.271V49.5043H277.722V18.3589H269.553V104.392H277.722V57.6738Z" fill="#FFFFCC"/>
<path d="M350.77 78.4308H387.866L397.936 104.392H406.891L373.607 19.4037L373.239 18.4684H365.606L331.834 104.392H340.849L350.77 78.4308ZM369.368 30.5982L384.741 70.2713H353.994L369.368 30.5982Z" fill="#FFFFCC"/>
<path d="M452.016 104.392C457.895 104.4 463.713 103.206 469.113 100.884C474.514 98.5621 479.382 95.1607 483.421 90.8889L484.515 89.7148L477.948 84.431L476.953 85.4261C472.156 90.4741 465.955 93.9681 459.153 95.457C452.35 96.9458 445.257 96.3611 438.79 93.7784C432.323 91.1957 426.778 86.7335 422.873 80.9681C418.967 75.2027 416.879 68.3989 416.879 61.4351C416.879 54.4713 418.967 47.6675 422.873 41.9021C426.778 36.1367 432.323 31.6745 438.79 29.0918C445.257 26.5091 452.35 25.9244 459.153 27.4132C465.955 28.9021 472.156 32.3962 476.953 37.4442L477.878 38.4392L484.475 33.2948L483.371 32.1007C478.498 26.8902 472.406 22.9735 465.643 20.7036C458.88 18.4337 451.659 17.8817 444.629 19.0975C437.6 20.3133 430.983 23.2586 425.376 27.6681C419.768 32.0776 415.345 37.8129 412.506 44.3572C409.666 50.9016 408.499 58.0495 409.11 65.1571C409.721 72.2646 412.09 79.1087 416.004 85.0727C419.919 91.0366 425.255 95.9332 431.533 99.3214C437.811 102.71 444.833 104.483 451.967 104.481L452.016 104.392Z" fill="#FFFFCC"/>
<path d="M504.696 18.3589H496.536V104.392H504.696V18.3589Z" fill="#FFFFCC"/>
<path d="M572.289 96.2224H525.571V57.6738H561.911V49.5043H525.571V26.5283H572.289V18.3589H517.401V104.392H572.289V96.2224Z" fill="#FFFFCC"/>
<path d="M591.086 35.7327L629.834 103.646L630.262 104.392H637.805V18.3589H629.645V87.0181L590.46 18.3589H582.917V104.392H591.086V35.7327Z" fill="#FFFFCC"/>
<path d="M713.709 61.3754C713.695 49.9673 709.156 39.0305 701.088 30.9656C693.019 22.9008 682.08 18.3668 670.672 18.3589H648.442V104.392H670.672C682.08 104.384 693.019 99.8501 701.088 91.7852C709.156 83.7203 713.695 72.7835 713.709 61.3754ZM670.692 96.2026H656.602V26.5482H670.672C679.909 26.5482 688.767 30.2175 695.299 36.7489C701.83 43.2802 705.499 52.1387 705.499 61.3754C705.499 70.6121 701.83 79.4706 695.299 86.0019C688.767 92.5333 679.909 96.2026 670.672 96.2026H670.692Z" fill="#FFFFCC"/>
<path d="M722.285 104.392L732.236 78.4308H769.332L779.402 104.392H788.357L755.072 19.4037L754.694 18.4684H747.062L713.3 104.392H722.285ZM750.853 30.5982L766.197 70.2713H735.45L750.853 30.5982Z" fill="#FFFFCC"/>
<path d="M312.359 124.612C317.074 124.633 321.736 125.607 326.066 127.474C330.395 129.341 334.303 132.063 337.554 135.478L338.48 136.473L345.077 131.328L343.973 130.134C338.076 123.856 330.429 119.494 322.024 117.616C313.618 115.737 304.842 116.428 296.834 119.599C288.826 122.77 281.956 128.274 277.115 135.398C272.274 142.521 269.686 150.935 269.686 159.548C269.686 168.161 272.274 176.575 277.115 183.699C281.956 190.822 288.826 196.327 296.834 199.497C304.842 202.668 313.618 203.359 322.024 201.48C330.429 199.602 338.076 195.24 343.973 188.962L345.067 187.788L338.5 182.504L337.554 183.499C333.579 187.673 328.629 190.795 323.15 192.584C317.671 194.374 311.833 194.776 306.16 193.754C300.488 192.731 295.157 190.317 290.647 186.727C286.137 183.138 282.589 178.485 280.32 173.186C278.052 167.887 277.134 162.108 277.649 156.367C278.164 150.626 280.096 145.102 283.271 140.292C286.447 135.481 290.767 131.534 295.844 128.804C300.92 126.075 306.595 124.648 312.359 124.651V124.612Z" fill="#FFFFCC"/>
<path d="M392.84 116.452C384.331 116.448 376.013 118.968 368.936 123.692C361.859 128.416 356.343 135.133 353.084 142.993C349.825 150.853 348.97 159.503 350.628 167.848C352.285 176.194 356.381 183.861 362.396 189.879C368.411 195.897 376.076 199.996 384.421 201.657C392.766 203.319 401.416 202.468 409.277 199.213C417.139 195.957 423.858 190.444 428.586 183.369C433.313 176.295 435.837 167.977 435.837 159.469C435.824 148.067 431.29 137.137 423.23 129.073C415.17 121.009 404.241 116.471 392.84 116.452ZM392.631 194.316C385.743 194.316 379.01 192.273 373.282 188.446C367.555 184.619 363.091 179.18 360.455 172.816C357.819 166.452 357.129 159.45 358.473 152.694C359.817 145.938 363.134 139.733 368.005 134.862C372.875 129.991 379.081 126.674 385.837 125.331C392.593 123.987 399.595 124.676 405.959 127.312C412.323 129.948 417.762 134.412 421.589 140.14C425.416 145.867 427.458 152.6 427.458 159.488C427.443 168.72 423.768 177.57 417.24 184.098C410.712 190.626 401.863 194.3 392.631 194.316Z" fill="#FFFFCC"/>
<path d="M454.654 116.452H446.484V202.485H490.993V194.316H454.654V116.452Z" fill="#FFFFCC"/>
<path d="M534.259 116.452C525.751 116.45 517.433 118.971 510.357 123.697C503.282 128.422 497.767 135.14 494.51 143C491.252 150.86 490.399 159.51 492.058 167.855C493.716 176.2 497.813 183.865 503.828 189.882C509.844 195.899 517.509 199.997 525.853 201.658C534.198 203.318 542.848 202.467 550.708 199.212C558.569 195.956 565.288 190.443 570.015 183.368C574.742 176.294 577.265 167.977 577.265 159.469C577.252 148.066 572.717 137.133 564.655 129.069C556.593 121.005 545.662 116.468 534.259 116.452ZM534.05 194.316C527.162 194.316 520.428 192.273 514.701 188.446C508.974 184.619 504.51 179.18 501.874 172.816C499.238 166.452 498.548 159.45 499.892 152.694C501.236 145.938 504.553 139.733 509.423 134.862C514.294 129.991 520.5 126.674 527.255 125.33C534.011 123.987 541.014 124.676 547.378 127.312C553.742 129.948 559.181 134.412 563.008 140.14C566.835 145.867 568.877 152.6 568.877 159.488C568.861 168.72 565.187 177.57 558.659 184.098C552.131 190.625 543.282 194.3 534.05 194.316Z" fill="#FFFFCC"/>
<path d="M634.63 185.111L595.883 117.198L595.445 116.452H587.912V202.485H596.072V133.816L634.819 201.729L635.257 202.485H642.79V116.452H634.63V185.111Z" fill="#FFFFCC"/>
<path d="M663.665 116.452H655.506V202.485H663.665V116.452Z" fill="#FFFFCC"/>
<path d="M714.454 116.552H706.822L673.06 202.485H682.075L692.025 176.524H729.131L739.201 202.485H748.157L714.852 117.497L714.454 116.552ZM695.269 168.364L710.673 128.701L726.047 168.364H695.269Z" fill="#FFFFCC"/>
<path d="M763.66 194.316V116.452H755.49V202.485H799.999V194.316H763.66Z" fill="#FFFFCC"/>
<path d="M105.894 0C47.5241 0 0 47.9122 0 106.81C0 165.708 47.4943 213.62 105.865 213.62C164.235 213.62 211.749 165.708 211.749 106.81C211.749 47.9122 164.265 0 105.894 0ZM116.84 11.8014C116.81 10.782 117.086 9.777 117.63 8.91486C118.175 8.05273 118.965 7.37273 119.898 6.96188C120.831 6.55103 121.866 6.42801 122.87 6.60856C123.874 6.78911 124.801 7.26502 125.532 7.9754C126.264 8.68578 126.767 9.59832 126.977 10.5962C127.187 11.5942 127.095 12.6321 126.712 13.5772C126.329 14.5223 125.672 15.3317 124.827 15.9016C123.981 16.4716 122.985 16.7763 121.965 16.7767C121.299 16.7926 120.636 16.676 120.015 16.4338C119.394 16.1916 118.828 15.8286 118.348 15.3658C117.869 14.903 117.486 14.3497 117.222 13.7378C116.958 13.1259 116.818 12.4678 116.81 11.8014H116.84ZM127.209 201.799C127.238 202.818 126.963 203.823 126.419 204.685C125.874 205.547 125.084 206.227 124.151 206.638C123.217 207.049 122.183 207.172 121.179 206.991C120.175 206.811 119.248 206.335 118.517 205.625C117.785 204.914 117.282 204.002 117.072 203.004C116.862 202.006 116.954 200.968 117.337 200.023C117.72 199.078 118.376 198.268 119.222 197.698C120.068 197.128 121.064 196.824 122.084 196.823C122.745 196.815 123.402 196.938 124.016 197.183C124.629 197.429 125.189 197.794 125.662 198.256C126.135 198.718 126.513 199.268 126.773 199.876C127.033 200.484 127.171 201.137 127.179 201.799H127.209ZM95.6254 201.878C95.6551 202.897 95.38 203.903 94.8353 204.765C94.2905 205.627 93.501 206.307 92.5676 206.718C91.6342 207.129 90.5995 207.252 89.5958 207.071C88.5921 206.89 87.665 206.415 86.9334 205.704C86.2017 204.994 85.6986 204.081 85.4884 203.083C85.2783 202.085 85.3707 201.047 85.7538 200.102C86.1369 199.157 86.7932 198.348 87.6389 197.778C88.4846 197.208 89.481 196.903 90.5009 196.903C91.1624 196.894 91.8193 197.015 92.4338 197.26C93.0483 197.506 93.6083 197.87 94.0816 198.332C94.555 198.795 94.9324 199.346 95.1922 199.954C95.452 200.563 95.5891 201.216 95.5956 201.878H95.6254ZM84.6798 12.1497C84.6381 11.1263 84.9034 10.1139 85.4417 9.24246C85.9799 8.37106 86.7665 7.68054 87.7003 7.25969C88.634 6.83883 89.6723 6.70689 90.6817 6.88077C91.6911 7.05465 92.6254 7.52642 93.3645 8.23547C94.1036 8.94451 94.6138 9.85841 94.8294 10.8597C95.0451 11.861 94.9563 12.9039 94.5746 13.8543C94.1929 14.8048 93.5357 15.6193 92.6874 16.1933C91.8391 16.7673 90.8385 17.0744 89.8143 17.0753C89.1514 17.0925 88.4916 16.9785 87.8729 16.74C87.2541 16.5015 86.6886 16.1431 86.2087 15.6855C85.7288 15.2278 85.3441 14.6798 85.0766 14.0731C84.8091 13.4663 84.6641 12.8127 84.6499 12.1497H84.6798ZM154.732 115.377C151.169 112.061 147.364 109.014 143.349 106.263C147.416 103.401 151.274 100.252 154.891 96.8394C153.222 102.899 153.167 109.29 154.732 115.377ZM158.006 86.3017C151.858 93.2298 144.798 99.2919 137.02 104.322C136.73 104.497 136.478 104.728 136.281 105.003C136.083 105.278 135.943 105.59 135.869 105.92C135.796 106.25 135.79 106.592 135.853 106.925C135.916 107.257 136.045 107.574 136.234 107.855C136.448 108.165 136.728 108.425 137.052 108.618C137.377 108.81 137.739 108.93 138.115 108.969C145.717 113.9 152.613 119.842 158.613 126.632C159.309 127.408 159.946 128.154 160.603 128.91C161.852 130.781 163.249 132.548 164.782 134.194C168.693 139.557 171.24 144.483 172.195 148.672C173.31 153.588 172.325 157.369 169.21 159.926C168.224 160.744 167.086 161.358 165.862 161.736C164.638 162.113 163.351 162.245 162.076 162.125C157.24 161.807 148.911 158.553 136.642 144.931C132.349 140.198 128.477 135.101 125.069 129.696C124.744 129.195 124.262 128.816 123.699 128.616C123.136 128.416 122.523 128.408 121.955 128.592C121.392 128.763 120.905 129.122 120.575 129.609C120.246 130.097 120.093 130.682 120.144 131.269C120.51 134.809 120.693 138.366 120.691 141.926C120.691 172.414 115.537 189.201 106.173 189.201C103.297 189.201 100.81 187.529 98.74 184.315C98.3519 183.599 97.9738 182.882 97.5459 182.186C93.7348 174.504 91.6551 160.722 91.6551 141.926C91.658 138.366 91.8407 134.809 92.2024 131.269C92.2529 130.682 92.1006 130.097 91.7709 129.609C91.4413 129.122 90.9543 128.763 90.3914 128.592C89.8219 128.411 89.2085 128.421 88.6458 128.623C88.0831 128.824 87.6021 129.205 87.2769 129.706C83.8634 135.095 79.9951 140.182 75.7142 144.911C61.7834 160.334 48.967 166.454 42.2702 160.832C41.3449 160.047 40.5934 159.078 40.064 157.987C39.5345 156.896 39.2387 155.706 39.1955 154.493C38.678 147.478 43.8524 137.577 53.7731 126.632C59.9245 119.707 66.9837 113.645 74.759 108.611C75.0487 108.436 75.3001 108.205 75.4981 107.931C75.696 107.656 75.8364 107.345 75.9108 107.015C75.9851 106.685 75.992 106.343 75.9308 106.01C75.8697 105.677 75.7419 105.361 75.555 105.079C75.3389 104.767 75.058 104.507 74.7317 104.314C74.4054 104.122 74.0413 104.003 73.6644 103.964C66.0603 99.0361 59.164 93.0939 53.1661 86.3017C45.6733 77.983 40.9866 70.3807 39.5935 64.2611C38.479 59.3455 39.4641 55.5642 42.5787 53.0069C43.5611 52.1862 44.6969 51.5692 45.9201 51.1916C47.1432 50.8141 48.4293 50.6836 49.7033 50.8078C54.5393 51.1263 62.868 54.3801 75.1471 68.0025C79.4496 72.7295 83.3349 77.8199 86.7594 83.217C87.0872 83.7154 87.5689 84.0931 88.1311 84.2925C88.6934 84.4919 89.3054 84.5021 89.874 84.3215C90.435 84.1486 90.9197 83.7885 91.2475 83.3014C91.5752 82.8143 91.7261 82.2297 91.675 81.6448C91.3136 78.1072 91.1309 74.5537 91.1277 70.9977C91.1277 40.509 96.2921 23.7123 105.646 23.7123C114.999 23.7123 120.164 40.9468 120.164 70.9977C120.164 74.5535 119.984 78.1071 119.626 81.6448C119.575 82.2297 119.726 82.8143 120.054 83.3014C120.382 83.7885 120.866 84.1486 121.427 84.3215C121.997 84.5028 122.61 84.4919 123.173 84.2906C123.736 84.0892 124.217 83.7085 124.542 83.2071C127.942 77.8193 131.797 72.7326 136.065 68.0025C149.996 52.5791 162.822 46.4694 169.509 52.0815C170.436 52.8646 171.19 53.8331 171.721 54.9247C172.252 56.0162 172.55 57.2069 172.593 58.4201C173.141 65.4153 167.927 75.3262 158.006 86.3017ZM88.8192 172.136C81.9423 166.322 73.4468 162.758 64.48 161.926C70.0931 158.003 75.2146 153.419 79.7343 148.274C82.1224 145.621 84.3282 142.967 86.3514 140.314C86.3514 140.871 86.3514 141.438 86.3514 141.995C86.3415 154.135 87.1873 164.175 88.8192 172.136ZM125.985 140.294C128.054 143.014 130.283 145.694 132.672 148.334C137.043 153.312 141.997 157.745 147.428 161.538C138.645 162.529 130.362 166.138 123.656 171.897C125.209 164.016 126.005 154.055 126.005 141.906C126.005 141.378 125.995 140.811 125.985 140.244V140.294ZM56.629 97.2275C60.3124 100.698 64.2616 103.875 68.4403 106.73C64.2236 109.687 60.2324 112.953 56.4996 116.502C58.2106 110.196 58.2517 103.554 56.619 97.2275H56.629ZM85.7942 72.7489C83.7245 70.0291 81.4989 67.3491 79.1173 64.7089C74.7349 59.6824 69.7599 55.2052 64.3009 51.375C73.1693 50.3058 81.5005 46.5567 88.1824 40.6284C86.5704 48.5888 85.7544 58.6788 85.7544 71.0574C85.7843 71.5648 85.7843 72.132 85.7942 72.6992V72.7489ZM132.045 64.7188C129.657 67.3723 127.451 70.0424 125.428 72.7291C125.428 72.1718 125.428 71.6046 125.428 71.0574C125.428 58.8181 124.582 48.7481 122.94 40.7776C129.835 46.6183 138.36 50.1964 147.359 51.0268C141.726 54.9444 136.584 59.5246 132.045 64.669V64.7188ZM106.173 15.3239C105.194 15.2945 104.245 14.9766 103.446 14.4102C102.646 13.8437 102.032 13.0539 101.68 12.1397C101.328 11.2255 101.253 10.2277 101.466 9.27137C101.678 8.31503 102.169 7.44274 102.875 6.76386C103.581 6.08497 104.472 5.6297 105.436 5.45517C106.4 5.28063 107.394 5.39459 108.294 5.78273C109.193 6.17088 109.958 6.81595 110.493 7.63706C111.027 8.45816 111.307 9.41874 111.298 10.3984C111.254 11.7146 110.695 12.9612 109.743 13.8708C108.791 14.7804 107.52 15.2806 106.203 15.2642L106.173 15.3239ZM94.7498 21.7819C92.0457 29.1261 87.1405 35.4566 80.7042 39.9089C74.2679 44.3613 66.6142 46.7184 58.7882 46.6584C54.8718 46.6507 50.9783 46.0605 47.2356 44.9071C60.1855 32.2795 76.855 24.1541 94.7796 21.7321L94.7498 21.7819ZM33.8719 61.5844C33.925 62.8806 34.0948 64.1695 34.3794 65.4353C34.8083 67.2724 35.401 69.0674 36.1506 70.7986C34.2561 69.7322 32.2835 68.8108 30.2499 68.0423C31.3942 65.7437 32.6082 63.6043 33.9018 61.5048L33.8719 61.5844ZM52.5094 106.81C52.5094 122.403 42.3001 135.667 28.0309 140.95C23.3862 130.162 20.9906 118.54 20.9906 106.795C20.9906 95.0495 23.3862 83.4275 28.0309 72.6395C42.32 77.9531 52.5094 91.2173 52.5094 106.81ZM36.5188 142.632C35.1194 145.646 34.2445 148.877 33.9316 152.185C32.6181 150.045 31.3743 147.856 30.2399 145.607C32.4068 144.78 34.506 143.785 36.5188 142.632ZM60.1714 166.822C66.6092 166.783 72.954 168.358 78.626 171.404C84.298 174.449 89.1162 178.868 92.6402 184.256C93.1663 185.325 93.7612 186.358 94.4214 187.35C95.2002 188.899 95.8654 190.502 96.4115 192.146C77.9739 190.041 60.7503 181.897 47.4246 168.981C51.5227 167.552 55.8312 166.819 60.1714 166.812V166.822ZM106.203 198.117C107.18 198.148 108.125 198.466 108.922 199.032C109.719 199.597 110.332 200.384 110.684 201.296C111.037 202.207 111.113 203.202 110.903 204.157C110.694 205.111 110.208 205.983 109.506 206.663C108.804 207.343 107.918 207.801 106.957 207.98C105.997 208.16 105.005 208.052 104.105 207.671C103.205 207.291 102.437 206.653 101.897 205.839C101.357 205.025 101.069 204.069 101.068 203.092C101.075 202.427 101.213 201.769 101.475 201.157C101.738 200.546 102.118 199.992 102.596 199.528C103.073 199.065 103.638 198.701 104.257 198.457C104.876 198.213 105.538 198.094 106.203 198.107V198.117ZM116.223 192.017C116.751 190.394 117.396 188.811 118.154 187.281C118.788 186.296 119.36 185.272 119.865 184.216C123.363 178.713 128.201 174.188 133.925 171.066C139.649 167.943 146.072 166.326 152.593 166.364C156.795 166.364 160.971 167.036 164.961 168.354C151.764 181.391 134.631 189.706 116.223 192.007V192.017ZM177.917 152.105C177.904 150.588 177.727 149.077 177.39 147.597C177.002 145.949 176.48 144.335 175.827 142.771C177.705 143.791 179.653 144.672 181.658 145.408C180.484 147.697 179.231 149.926 177.897 152.095L177.917 152.105ZM183.887 140.741C178.261 138.737 173.18 135.446 169.051 131.129C167.784 129.411 166.391 127.65 164.872 125.845C161.025 120.098 158.949 113.348 158.901 106.432C158.901 90.7894 169.18 77.5153 183.529 72.2315C188.259 83.0237 190.728 94.6705 190.782 106.454C190.837 118.237 188.477 129.906 183.848 140.741H183.887ZM175.26 70.4205C176.584 67.5877 177.46 64.5665 177.857 61.465C179.101 63.4551 180.275 65.5149 181.35 67.6244C179.241 68.3939 177.195 69.3254 175.23 70.4106L175.26 70.4205ZM151.627 46.1112C143.867 46.1609 136.277 43.8372 129.874 39.4514C123.471 35.0656 118.562 28.8274 115.805 21.5729C133.802 23.7229 150.622 31.6321 163.757 44.121C159.845 45.4213 155.751 46.093 151.627 46.1112ZM82.2617 19.1151C69.1611 22.7453 57.0435 29.2727 46.8042 38.215C36.565 47.1573 28.4659 58.2859 23.1053 70.7787L22.9163 71.0772C17.8118 83.0755 15.3408 96.0291 15.6698 109.064C15.9989 122.099 19.1204 134.911 24.8237 146.636C30.527 158.362 38.6793 168.727 48.7304 177.033C58.7816 185.339 70.4976 191.392 83.0876 194.783C82.029 195.803 81.207 197.043 80.6796 198.415C60.8929 192.731 43.4848 180.78 31.0702 164.358C18.6556 147.935 11.9047 127.928 11.8318 107.341C11.7589 86.7544 18.3679 66.6997 30.6659 50.1897C42.9639 33.6797 60.2869 21.6058 80.0328 15.7817C80.5469 17.0211 81.3049 18.1446 82.2617 19.0853V19.1151ZM129.298 194.624C148.512 189.311 165.453 177.842 177.52 161.974C189.588 146.107 196.116 126.718 196.104 106.783C196.092 86.8482 189.539 67.4678 177.452 51.6154C165.364 35.763 148.41 24.3143 129.189 19.0256C130.18 18.1064 130.976 16.9962 131.527 15.7618C151.236 21.532 168.548 33.528 180.872 49.9553C193.196 66.3826 199.871 86.3583 199.898 106.895C199.925 127.431 193.302 147.424 181.021 163.884C168.74 180.343 151.46 192.384 131.766 198.206C131.216 196.837 130.374 195.604 129.298 194.594V194.624ZM5.34348 106.81C5.29909 84.5199 12.5872 62.8341 26.0843 45.0951C39.5814 27.3561 58.5382 14.5487 80.0328 8.64709C79.5868 9.76139 79.3539 10.9495 79.3462 12.1497C79.3609 12.5267 79.4008 12.9024 79.4656 13.2741C59.142 19.2165 41.3011 31.6049 28.6326 48.5716C15.964 65.5384 9.15466 86.1637 9.23103 107.338C9.30739 128.512 16.2654 149.088 29.0559 165.963C41.8465 182.838 59.7763 195.097 80.1423 200.893C80.1423 201.221 80.0428 201.54 80.0428 201.888C80.0548 203 80.2602 204.101 80.6497 205.142C59.0108 199.35 39.8935 186.567 26.2735 168.783C12.6536 150.999 5.29509 129.21 5.34348 106.81ZM131.925 204.933C132.286 203.926 132.477 202.867 132.492 201.799C132.478 201.415 132.438 201.033 132.373 200.654C152.639 194.723 170.434 182.38 183.089 165.476C195.743 148.572 202.574 128.02 202.556 106.904C202.538 85.7888 195.673 65.2484 182.989 48.3662C170.306 31.484 152.49 19.1706 132.214 13.2741C132.307 12.7884 132.36 12.2959 132.373 11.8014C132.357 10.7276 132.158 9.66429 131.786 8.65702C153.24 14.6005 172.155 27.4091 185.639 45.1229C199.122 62.8368 206.431 84.4803 206.447 106.742C206.463 129.004 199.185 150.658 185.726 168.391C172.268 186.124 153.37 198.959 131.925 204.933Z" fill="#FFFFCC"/>
</svg>
